<?xml version="1.0" encoding="utf-8"?>
<svg version="1.1" xmlns="http://www.w3.org/2000/svg" xmlns:xlink="http://www.w3.org/1999/xlink" x="0px" y="0px"
	 viewBox="0 0 209.5 155.6" style="enable-background:new 0 0 209.5 155.6;" xml:space="preserve">
<style type="text/css">
	.st0{clip-path:url(#SVGID_2_);}
	.st1{fill:url(#Bg_1_);}
	.st2{fill:#FFFFFF;}
	.st3{fill:#DEEEF9;}
</style>
<g id="Logo">
	<defs>
		<path id="SVGID_1_" d="M2.5,136.5V18.7C2.5,8.1,11-0.5,21.6-0.5h145.1c7.8,0,14.9,4.8,17.8,12.1l23.6,58.9c1.8,4.6,1.8,9.7,0,14.3
			l-23.6,58.9c-2.9,7.3-10,12-17.8,12.1H21.6C11,155.6,2.4,147.1,2.5,136.5C2.5,136.5,2.5,136.5,2.5,136.5z"/>
	</defs>
	<clipPath id="SVGID_2_">
		<use xlink:href="#SVGID_1_"  style="overflow:visible;"/>
	</clipPath>
	<g class="st0">
		<linearGradient id="Bg_1_" gradientUnits="userSpaceOnUse" x1="3.0674" y1="77.625" x2="209.4624" y2="77.625">
			<stop  offset="0" style="stop-color:#2EAFFF"/>
			<stop  offset="1" style="stop-color:#505DDE"/>
		</linearGradient>
		<rect id="Bg" x="3.1" class="st1" width="206.4" height="155.2"/>
		<path id="Face" class="st2" d="M43.4,166.6L0,166.3c0,0,2-33.8,2.1-40.9c0.3-30.1,16.4-41.3,20.2-47.1c9-13.6,11.6-20.8,18.9-26.5
			c9.5-7.5,20-6.2,29.2-9.1c4.1-1.3,8.6-7,19.1-6.2s19.3,10,30,13.9c7.3,2.7,40.9,16,43.9,20.6c3.8,5.7,2.9,18.9-0.1,22.4
			c-9.2,11.1-81,1.5-94.2,4c-27.3,5.2-46.2,54.5-9.1,57.9L43.4,166.6z M85.3,48.1c-0.1,0.6-0.1,1.3-0.1,1.9
			c0,7.2,5.9,13.1,13.1,13.1c4.7,0,9.1-2.6,11.4-6.7C103,49.8,94.7,47.5,85.3,48.1z"/>
		<path id="Shadow" class="st3" d="M32.3,158.1C15.8,107.9,50.2,105.3,53,78.6C51.3,99,69.2,97.3,69.2,97.3
			c-27.3,5.2-46.2,54.5-9.1,57.9C60.1,155.2,44.5,195,32.3,158.1z"/>
	</g>
</g>
</svg>
